<?xml version="1.0" encoding="UTF-8" standalone="no"?>
<svg width="320px" height="130px" viewBox="0 0 320 130" version="1.1" xmlns="http://www.w3.org/2000/svg" xmlns:xlink="http://www.w3.org/1999/xlink">
    <defs></defs>
    <g stroke="none" stroke-width="1" fill="none" fill-rule="evenodd">
        <g>
            <path d="M306.459581,0.127962478 L319.983368,0.127962478 L319.983368,129.753982 L306.459581,129.753982 L306.459581,0.127962478 L306.459581,0.127962478 L306.459581,0.127962478 L306.459581,0.127962478 L306.459581,0.127962478 L306.459581,0.127962478 L306.459581,0.127962478 Z M306.459581,47.8619521 C306.459581,44.1274466 309.486162,41.1000321 313.221474,41.1000321 C316.955965,41.1000321 319.983368,44.1278135 319.983368,47.8619521 L319.983368,95.7109305 C319.983368,99.4454356 316.956786,102.47285 313.221474,102.47285 C309.486983,102.47285 306.459581,99.4450687 306.459581,95.7109305 L306.459581,47.8619521 L306.459581,47.8619521 L306.459581,47.8619521 L306.459581,47.8619521 L306.459581,47.8619521 L306.459581,47.8619521 L306.459581,47.8619521 Z" opacity="0.140000001" fill="#4B4643"></path>
            <path d="M319.983368,47.8582713 C319.983368,44.1278135 316.955965,41.1000321 313.221474,41.1000321 C309.486162,41.1000321 306.459581,44.1257989 306.459581,47.8582713 L306.459581,61.4048337 C307.557064,58.8999763 310.174676,57.133039 313.221474,57.133039 C316.268272,57.133039 318.885884,58.8999763 319.983368,61.4048337 L319.983368,47.8582713 Z" fill="#4B4643"></path>
            <path d="M319.983368,66.4366745 L319.983368,77.1361656 C318.973357,74.8639896 316.794699,72.9131096 315.33033,71.7864413 C316.794699,70.6595541 318.973357,68.708782 319.983368,66.4366745 L319.983368,66.4366745 Z" fill="#4B4643"></path>
            <path d="M319.983368,82.1679262 L319.983368,95.7146109 C319.983368,99.4470833 316.956786,102.47285 313.221474,102.47285 C309.486983,102.47285 306.459581,99.4450687 306.459581,95.7146109 L306.459581,82.1679262 C307.557064,84.6727386 310.174676,86.4398432 313.221474,86.4398432 C316.268272,86.4398432 318.885884,84.6727386 319.983368,82.1679262 L319.983368,82.1679262 Z" fill="#4B4643"></path>
            <path d="M306.459581,77.1361111 L306.459581,66.4366633 C307.469604,68.7087755 309.648326,70.6595525 311.112929,71.7864413 C309.648536,72.9129091 307.469657,74.8637794 306.459581,77.1361111 L306.459581,77.1361111 Z" fill="#4B4643"></path>
            <path d="M308.448048,79.5407286 C308.448048,77.2263703 311.438467,74.5658983 313.223027,73.2673139 C315.007898,74.5635541 317.995832,77.2184573 317.995832,79.5407286 C317.995832,82.0241873 315.85436,84.044012 313.222096,84.044012 C310.58952,84.044012 308.448048,82.0241873 308.448048,79.5407286 L308.448048,79.5407286 L308.448048,79.5407286 L308.448048,79.5407286 L308.448048,79.5407286 L308.448048,79.5407286 L308.448048,79.5407286 L308.448048,79.5407286 Z" fill="#4B4643"></path>
            <path d="M308.448048,64.032154 C308.448048,61.5489885 310.589831,59.5285774 313.221474,59.5285774 C315.853739,59.5285774 317.995211,61.5489885 317.995211,64.032154 C317.995211,66.345926 315.006034,69.0055186 313.221474,70.3046893 C311.436293,69.0052255 308.448048,66.345926 308.448048,64.032154 L308.448048,64.032154 L308.448048,64.032154 L308.448048,64.032154 L308.448048,64.032154 L308.448048,64.032154 L308.448048,64.032154 L308.448048,64.032154 Z" fill="#4B4643"></path>
            <path d="M151.331594,65.7727286 L151.331594,29.0654038 L147.442366,28.4536151 C146.59751,28.3079504 145.92018,28.0166253 145.410353,27.5796312 C144.900527,27.142637 144.645617,26.5308544 144.645617,25.7442649 L144.645617,21.3306461 L151.331594,21.3306461 L151.331594,19.8885726 C151.331594,17.150076 151.783148,14.6082648 152.686269,12.2630629 C153.589391,9.91786101 154.958618,7.88586871 156.793994,6.16702504 C158.629369,4.44818141 160.945404,3.10080301 163.742166,2.12484942 C166.538929,1.14889583 169.845468,0.660926348 173.661884,0.660926348 C174.885467,0.660926348 176.138165,0.726474486 177.420014,0.857572732 C178.701864,0.988670973 179.808899,1.19988164 180.741153,1.49121108 L180.39156,7.08470817 C180.333294,7.75476587 179.969137,8.15533782 179.29908,8.28643609 C178.629022,8.41753432 177.798746,8.48308247 176.808225,8.48308247 C173.98233,8.48308247 171.615314,8.73070877 169.707106,9.2259688 C167.798898,9.72122883 166.254876,10.4568246 165.074991,11.4327782 C163.895107,12.4087318 163.050264,13.6322971 162.540438,15.1035107 C162.030611,16.5747243 161.775702,18.286259 161.775702,20.2381662 L161.775702,21.3306461 L189.568391,21.3306461 L189.568391,65.7727286 L178.77469,65.7727286 L178.77469,29.0217046 L162.125296,29.0217046 L162.125296,65.7727286 L151.331594,65.7727286 L151.331594,65.7727286 Z M201.983336,65.7727286 L201.983336,20.9373533 L208.581914,20.9373533 C209.980296,20.9373533 210.897969,21.5928347 211.334964,22.9038172 L212.07785,26.4434521 C212.980971,25.5111979 213.935061,24.6663552 214.940147,23.9088987 C215.945234,23.1514422 217.00857,22.4959608 218.130189,21.9424348 C219.251807,21.388909 220.453523,20.9664876 221.735372,20.6751582 C223.017222,20.3838287 224.415582,20.2381662 225.930495,20.2381662 C228.377663,20.2381662 230.548034,20.6533044 232.441675,21.4835933 C234.335317,22.3138822 235.915755,23.4791824 237.183038,24.979529 C238.450321,26.4798756 239.411694,28.2715247 240.067185,30.3545301 C240.722676,32.4375356 241.050417,34.7317204 241.050417,37.2371535 L241.050417,65.7727286 L230.256715,65.7727286 L230.256715,37.2371535 C230.256715,34.4986569 229.623084,32.379267 228.355801,30.8789205 C227.088518,29.3785739 225.187621,28.6284119 222.653055,28.6284119 C220.788547,28.6284119 219.040597,29.0508332 217.409152,29.8956886 C215.777707,30.7405439 214.233684,31.8912779 212.777037,33.3479251 L212.777037,65.7727286 L201.983336,65.7727286 L201.983336,65.7727286 Z M270.245853,20.2381662 C273.071749,20.2381662 275.671825,20.6897201 278.04616,21.5928413 C280.420494,22.4959625 282.467053,23.8142084 284.185897,25.5476186 C285.90474,27.2810287 287.244836,29.4077016 288.206223,31.9277012 C289.16761,34.4477008 289.648296,37.3245357 289.648296,40.5582925 C289.648296,41.3740146 289.611881,42.0513456 289.539048,42.590305 C289.466216,43.1292644 289.33512,43.551686 289.145756,43.8575816 C288.956391,44.1634775 288.701482,44.3819713 288.38102,44.5130695 C288.060557,44.644168 287.652702,44.7097159 287.157442,44.7097159 L259.452152,44.7097159 C259.772614,49.312721 261.010746,52.6920918 263.166583,54.8479294 C265.322421,57.0037674 268.177407,58.0816702 271.731626,58.0816702 C273.479603,58.0816702 274.98721,57.8777424 276.254493,57.4698815 C277.521776,57.0620203 278.628811,56.6104662 279.575631,56.1152064 C280.522452,55.6199463 281.352729,55.1683922 282.066486,54.7605313 C282.780243,54.3526701 283.47214,54.1487423 284.142197,54.1487423 C284.579192,54.1487423 284.957914,54.2361399 285.278377,54.4109377 C285.598839,54.5857351 285.875598,54.8333614 286.108661,55.1538238 L289.255004,59.0867517 C288.060553,60.4851328 286.720458,61.6577163 285.234677,62.6045369 C283.748897,63.5513576 282.197592,64.3088028 280.580713,64.876895 C278.963835,65.4449873 277.317848,65.8455595 275.642704,66.078623 C273.96756,66.3116864 272.343423,66.4282165 270.770244,66.4282165 C267.653019,66.4282165 264.754334,65.9111146 262.074104,64.876895 C259.393873,63.8426755 257.063272,62.313219 255.082232,60.2884796 C253.101192,58.2637397 251.542603,55.7583443 250.406418,52.7722177 C249.270233,49.7860912 248.702149,46.3266061 248.702149,42.3936585 C248.702149,39.3346996 249.197402,36.4578647 250.187922,33.7630674 C251.178442,31.0682702 252.598652,28.7231034 254.448594,26.7274969 C256.298536,24.7318902 258.556305,23.1514518 261.221969,21.9861341 C263.887633,20.8208163 266.895565,20.2381662 270.245853,20.2381662 L270.245853,20.2381662 L270.245853,20.2381662 Z M270.464349,27.9729239 C267.317991,27.9729239 264.856295,28.8614654 263.079185,30.6385749 C261.302076,32.4156844 260.165908,34.9356462 259.670648,38.1985358 L279.947075,38.1985358 C279.947075,36.8001545 279.757713,35.4819087 279.378985,34.2437586 C279.000257,33.0056085 278.417607,31.9204227 277.631017,30.9881685 C276.844428,30.0559143 275.853923,29.3203185 274.659472,28.7813591 C273.465021,28.2423996 272.066661,27.9729239 270.464349,27.9729239 L270.464349,27.9729239 L270.464349,27.9729239 Z" fill="#FFFFFF"></path>
            <path d="M6.71302649,129.215905 L6.71302649,92.5085798 L2.82379804,91.8967912 C1.97894269,91.7511262 1.30161192,91.4598011 0.791785416,91.022807 C0.281958913,90.5858129 0.0270494848,89.9740303 0.0270494848,89.187441 L0.0270494848,84.7738222 L6.71302649,84.7738222 L6.71302649,81.4526833 C6.71302649,78.8889841 7.09903218,76.587516 7.8710552,74.5482101 C8.64307818,72.5089043 9.7501134,70.77552 11.1921941,69.3480056 C12.6342748,67.9204916 14.3895083,66.8280225 16.4579472,66.070566 C18.5263862,65.3131096 20.8569867,64.9343872 23.4498186,64.9343872 C25.5182576,64.9343872 27.441003,65.2111459 29.2181125,65.7646717 L28.9996165,71.183372 C28.9413506,72.0282274 28.5480618,72.5526123 27.8197382,72.756543 C27.0914147,72.9604736 26.246572,73.0624373 25.2851848,73.0624373 C24.0033353,73.0624373 22.8598845,73.2008168 21.854798,73.4775799 C20.8497114,73.7543427 19.9975856,74.2350292 19.298395,74.9196531 C18.5992043,75.6042775 18.0675361,76.5073853 17.7033743,77.6290033 C17.3392126,78.7506218 17.1571344,80.141699 17.1571344,81.8022765 L17.1571344,84.7738222 L28.8248197,84.7738222 L28.8248197,92.4648806 L17.5067279,92.4648806 L17.5067279,129.215905 L6.71302649,129.215905 L6.71302649,129.215905 Z M54.6117185,83.6813422 C57.962007,83.6813422 60.9990709,84.2202935 63.7230011,85.2982123 C66.4469313,86.3761311 68.7702484,87.905588 70.693023,89.8866282 C72.6157971,91.867668 74.1015547,94.2856662 75.1503407,97.1406945 C76.1991266,99.9957229 76.723512,103.185732 76.723512,106.710819 C76.723512,110.265037 76.1991266,113.469613 75.1503407,116.324642 C74.1015547,119.17967 72.6157971,121.612234 70.693023,123.622407 C68.7702484,125.632581 66.4469313,127.176603 63.7230011,128.254522 C60.9990709,129.332441 57.962007,129.871392 54.6117185,129.871392 C51.2614304,129.871392 48.2170831,129.332441 45.4785865,128.254522 C42.7400898,127.176603 40.4022063,125.632581 38.4648656,123.622407 C36.5275249,121.612234 35.0272009,119.17967 33.9638485,116.324642 C32.900496,113.469613 32.3688278,110.265037 32.3688278,106.710819 C32.3688278,103.185732 32.900496,99.9957229 33.9638485,97.1406945 C35.0272009,94.2856662 36.5275249,91.867668 38.4648656,89.8866282 C40.4022063,87.905588 42.7400898,86.3761311 45.4785865,85.2982123 C48.2170831,84.2202935 51.2614304,83.6813422 54.6117185,83.6813422 L54.6117185,83.6813422 L54.6117185,83.6813422 Z M54.6117185,121.568545 C58.3407354,121.568545 61.1010402,120.315847 62.8927162,117.810414 C64.6843922,115.304981 65.5802169,111.634285 65.5802169,106.798217 C65.5802169,101.962148 64.6843922,98.2768862 62.8927162,95.7423202 C61.1010402,93.2077542 58.3407354,91.94049 54.6117185,91.94049 C50.8244359,91.94049 48.0277153,93.2150372 46.2214729,95.76417 C44.4152305,98.3133025 43.5121227,101.991281 43.5121227,106.798217 C43.5121227,111.605152 44.4152305,115.268565 46.2214729,117.788565 C48.0277153,120.308564 50.8244359,121.568545 54.6117185,121.568545 L54.6117185,121.568545 L54.6117185,121.568545 Z M85.205529,129.215905 L85.205529,84.3805293 L91.5419124,84.3805293 C92.6489644,84.3805293 93.4209756,84.5844567 93.8579701,84.992318 C94.2949642,85.4001792 94.5862893,86.0993592 94.7319539,87.0898795 L95.3874418,92.5085798 C96.9897536,89.74095 98.8688004,87.556012 101.024638,85.9537003 C103.180476,84.3513885 105.598474,83.5502444 108.278705,83.5502444 C110.492808,83.5502444 112.328156,84.0600634 113.784803,85.0797165 L112.386429,93.1640678 C112.29903,93.6884608 112.109669,94.0599002 111.818339,94.2783972 C111.52701,94.4968942 111.133721,94.6061414 110.638461,94.6061414 C110.201467,94.6061414 109.604251,94.5041772 108.846794,94.3002466 C108.089338,94.096316 107.084266,93.9943523 105.83155,93.9943523 C103.588313,93.9943523 101.665568,94.6134183 100.063256,95.8515681 C98.460944,97.0897183 97.1062825,98.9032168 95.9992305,101.292118 L95.9992305,129.215905 L85.205529,129.215905 L85.205529,129.215905 Z M139.484304,83.6813422 C142.310199,83.6813422 144.910276,84.1328958 147.28461,85.0360172 C149.658945,85.9391382 151.705504,87.2573843 153.424347,88.9907946 C155.143191,90.7242045 156.483286,92.8508776 157.444673,95.3708772 C158.406061,97.8908768 158.886747,100.767712 158.886747,104.001468 C158.886747,104.817191 158.850331,105.494522 158.777499,106.033481 C158.704666,106.57244 158.57357,106.994862 158.384206,107.300757 C158.194842,107.606653 157.939933,107.825147 157.61947,107.956245 C157.299008,108.087344 156.891153,108.152892 156.395893,108.152892 L128.690603,108.152892 C129.011065,112.755897 130.249196,116.135268 132.405034,118.291105 C134.560872,120.446943 137.415858,121.524846 140.970076,121.524846 C142.718053,121.524846 144.22566,121.320918 145.492943,120.913057 C146.760226,120.505196 147.867262,120.053642 148.814082,119.558382 C149.760903,119.063122 150.591179,118.611568 151.304936,118.203707 C152.018694,117.795846 152.71059,117.591918 153.380648,117.591918 C153.817643,117.591918 154.196365,117.679316 154.516827,117.854114 C154.83729,118.028911 155.114049,118.276537 155.347112,118.597 L158.493454,122.529928 C157.299004,123.928309 155.958908,125.100892 154.473128,126.047713 C152.987348,126.994534 151.436042,127.751979 149.819164,128.320071 C148.202285,128.888163 146.556299,129.288735 144.881154,129.521799 C143.20601,129.754862 141.581873,129.871392 140.008694,129.871392 C136.891469,129.871392 133.992785,129.354291 131.312554,128.320071 C128.632324,127.285851 126.301723,125.756395 124.320683,123.731656 C122.339643,121.706916 120.781053,119.20152 119.644869,116.215394 C118.508684,113.229267 117.9406,109.769782 117.9406,105.836834 C117.9406,102.777875 118.435853,99.9010406 119.426373,97.2062432 C120.416893,94.5114462 121.837103,92.1662793 123.687044,90.1706727 C125.536986,88.1750661 127.794756,86.5946278 130.46042,85.4293101 C133.126084,84.2639924 136.134015,83.6813422 139.484304,83.6813422 L139.484304,83.6813422 L139.484304,83.6813422 Z M139.7028,91.4160998 C136.556442,91.4160998 134.094745,92.3046412 132.317636,94.0817508 C130.540526,95.8588604 129.404358,98.3788223 128.909098,101.641712 L149.185525,101.641712 C149.185525,100.24333 148.996164,98.9250847 148.617436,97.6869345 C148.238708,96.4487844 147.656057,95.3635986 146.869468,94.4313444 C146.082878,93.4990901 145.092373,92.7634943 143.897923,92.2245349 C142.703472,91.6855755 141.305112,91.4160998 139.7028,91.4160998 L139.7028,91.4160998 L139.7028,91.4160998 Z M188.737671,129.215905 L178.949051,129.215905 L161.119779,84.3805293 L170.078114,84.3805293 C170.864704,84.3805293 171.527468,84.5698907 172.066428,84.9486187 C172.605387,85.3273472 172.976826,85.8080333 173.180757,86.3906923 L181.833198,110.337852 C182.328458,111.736233 182.743596,113.105461 183.078625,114.445576 C183.413654,115.785691 183.712262,117.125787 183.974459,118.465902 C184.236655,117.125787 184.535263,115.785691 184.870292,114.445576 C185.205321,113.105461 185.635026,111.736233 186.159419,110.337852 L195.030355,86.3906923 C195.234286,85.8080333 195.598442,85.3273472 196.122835,84.9486187 C196.647228,84.5698907 197.273577,84.3805293 198.001901,84.3805293 L206.523244,84.3805293 L188.737671,129.215905 L188.737671,129.215905 Z M230.037784,83.6813422 C232.86368,83.6813422 235.463756,84.1328958 237.838091,85.0360172 C240.212426,85.9391382 242.258985,87.2573843 243.977828,88.9907946 C245.696672,90.7242045 247.036767,92.8508776 247.998154,95.3708772 C248.959541,97.8908768 249.440228,100.767712 249.440228,104.001468 C249.440228,104.817191 249.403812,105.494522 249.33098,106.033481 C249.258147,106.57244 249.127051,106.994862 248.937687,107.300757 C248.748323,107.606653 248.493414,107.825147 248.172951,107.956245 C247.852489,108.087344 247.444634,108.152892 246.949373,108.152892 L219.244083,108.152892 C219.564545,112.755897 220.802677,116.135268 222.958515,118.291105 C225.114353,120.446943 227.969338,121.524846 231.523557,121.524846 C233.271534,121.524846 234.779141,121.320918 236.046424,120.913057 C237.313707,120.505196 238.420742,120.053642 239.367563,119.558382 C240.314384,119.063122 241.14466,118.611568 241.858417,118.203707 C242.572174,117.795846 243.264071,117.591918 243.934129,117.591918 C244.371123,117.591918 244.749846,117.679316 245.070308,117.854114 C245.390771,118.028911 245.667529,118.276537 245.900593,118.597 L249.046935,122.529928 C247.852484,123.928309 246.512389,125.100892 245.026609,126.047713 C243.540829,126.994534 241.989523,127.751979 240.372644,128.320071 C238.755766,128.888163 237.10978,129.288735 235.434635,129.521799 C233.759491,129.754862 232.135354,129.871392 230.562175,129.871392 C227.44495,129.871392 224.546266,129.354291 221.866035,128.320071 C219.185804,127.285851 216.855204,125.756395 214.874163,123.731656 C212.893124,121.706916 211.334534,119.20152 210.198349,116.215394 C209.062165,113.229267 208.494081,109.769782 208.494081,105.836834 C208.494081,102.777875 208.989333,99.9010406 209.979854,97.2062432 C210.970374,94.5114462 212.390583,92.1662793 214.240525,90.1706727 C216.090467,88.1750661 218.348236,86.5946278 221.013901,85.4293101 C223.679565,84.2639924 226.687496,83.6813422 230.037784,83.6813422 L230.037784,83.6813422 L230.037784,83.6813422 Z M230.256281,91.4160998 C227.109923,91.4160998 224.648226,92.3046412 222.871117,94.0817508 C221.094007,95.8588604 219.957839,98.3788223 219.462579,101.641712 L239.739006,101.641712 C239.739006,100.24333 239.549645,98.9250847 239.170916,97.6869345 C238.792188,96.4487844 238.209538,95.3635986 237.422949,94.4313444 C236.636359,93.4990901 235.645854,92.7634943 234.451403,92.2245349 C233.256953,91.6855755 231.858592,91.4160998 230.256281,91.4160998 L230.256281,91.4160998 L230.256281,91.4160998 Z M258.271838,129.215905 L258.271838,84.3805293 L264.608222,84.3805293 C265.715274,84.3805293 266.487285,84.5844567 266.924279,84.992318 C267.361274,85.4001792 267.652599,86.0993592 267.798263,87.0898795 L268.453751,92.5085798 C270.056063,89.74095 271.93511,87.556012 274.090947,85.9537003 C276.246785,84.3513885 278.664783,83.5502444 281.345014,83.5502444 C283.559118,83.5502444 285.394466,84.0600634 286.851113,85.0797165 L285.452739,93.1640678 C285.36534,93.6884608 285.175978,94.0599002 284.884649,94.2783972 C284.59332,94.4968942 284.20003,94.6061414 283.704771,94.6061414 C283.267777,94.6061414 282.67056,94.5041772 281.913104,94.3002466 C281.155647,94.096316 280.150576,93.9943523 278.897859,93.9943523 C276.654623,93.9943523 274.731877,94.6134183 273.129565,95.8515681 C271.527253,97.0897183 270.172592,98.9032168 269.06554,101.292118 L269.06554,129.215905 L258.271838,129.215905 L258.271838,129.215905 Z" fill="#FFFFFF"></path>
        </g>
    </g>
</svg>