<?xml version="1.0" encoding="UTF-8" standalone="no"?>
<svg width="330px" height="142px" viewBox="0 0 330 142" version="1.1" xmlns="http://www.w3.org/2000/svg" xmlns:xlink="http://www.w3.org/1999/xlink">
    <defs></defs>
    <g stroke="none" stroke-width="1" fill="none" fill-rule="evenodd">
        <g>
            <path d="M38.9741944,75.8081614 L38.5610352,74.60826 C36.7752427,69.421942 34.6035886,66.1475867 32.0460077,64.7850955 C29.4884268,63.4226047 25.7548351,63.5866316 20.8451208,65.277182 L17.6814827,66.36651 L15.80641,60.9209032 L18.9700481,59.8315752 C23.8797624,58.1410252 26.922858,55.9716519 28.099426,53.3233903 C29.2759941,50.6751288 28.9713864,46.7578976 27.1855939,41.5715796 L22.5782723,28.1909462 C19.9472047,20.5497711 19.654969,14.9556213 21.7015565,11.4083291 C23.748144,7.8610368 29.0760017,4.60523176 37.6852896,1.64081624 L40.9007906,0.533630435 L42.7580055,5.92737416 L39.2313269,7.14170696 C34.356188,8.82035191 31.4372063,10.6762701 30.4742943,12.7095172 C29.5113823,14.7427643 29.8692434,18.1969055 31.5478883,23.0720444 L36.6730872,37.9567025 C38.5541219,43.4196242 39.0350254,47.6242194 38.115812,50.5706145 C37.1965986,53.5170092 34.6682046,56.2826406 30.5305542,58.8675908 C35.4992937,58.4716589 39.229533,59.1402809 41.7213844,60.8734776 C44.2132354,62.6066739 46.3936931,66.1873917 48.2628226,71.6157379 L49.7114533,75.8228666 C47.8441,75.8203463 46.0478419,75.8179051 44.3263895,75.8155493 C42.4359523,75.8129625 40.7726012,75.8106661 39.3506623,75.8086865 C39.1989984,75.8084749 39.0766122,75.8083041 38.9741944,75.8081614 L38.9741944,75.8081614 L38.9741944,75.8081614 Z" opacity="0.479244403" fill="#4B4643"></path>
            <path d="M284.627568,76.0057431 L310.266002,9.21533869 L286.454237,0.0748583707 L284.370601,5.50291669 L298.401619,10.8889201 L273.400637,76.0187055 C277.83152,76.0158803 281.585233,76.0115804 284.627568,76.0057431 L284.627568,76.0057431 L284.627568,76.0057431 Z" opacity="0.479244403" fill="#4B4643"></path>
            <path d="M79.5590474,75.8646467 C85.8895249,71.5323477 93.7388974,67.9393205 103.107237,65.0855217 C118.899769,60.2747747 138.707878,57.6615134 162.532158,57.2456589 C186.423548,56.828633 206.344347,58.7484241 222.295152,63.0050887 C234.007813,66.1307542 243.434014,70.4696239 250.573893,76.0217754 C245.878466,76.0207458 240.841066,76.0189617 235.475482,76.0164487 C230.22365,73.9179231 224.165497,72.2797032 217.300976,71.1017719 C204.339418,68.8776066 186.148103,67.9699507 162.726487,68.3787761 C139.371982,68.7864309 121.25698,70.3278159 108.38094,73.0029783 C104.446291,73.8204518 100.785283,74.781703 97.3979069,75.8867352 C91.3963916,75.8794488 85.4422557,75.8720717 79.5590474,75.8646467 L79.5590474,75.8646467 L79.5590474,75.8646467 Z" opacity="0.479244403" fill="#4B4643"></path>
            <path d="M37.6133922,141.055921 C38.8662933,141.064969 277.624523,140.901495 296.234872,140.901497 C314.845221,140.901498 329.98562,125.750794 329.98562,109.248408 C329.98562,92.7071095 315.615072,77.4408946 296.100766,77.5843171 C276.586461,77.7277401 37.6133922,77.4408946 37.6133922,77.4408946 C16.7545806,77.3004932 0.14731967,91.6816032 0.14731967,109.248408 C0.14731967,126.815212 16.2286476,140.901498 37.6133922,141.055921 L37.6133922,141.055921 Z M304.957987,98.2794937 C309.345575,100.073873 309.251043,96.4571998 309.251043,96.4571998 C304.790553,85.9489434 276.603164,88.3480451 276.603164,88.3480451 C276.603164,88.3480451 299.216667,88.4443857 304.957987,98.2794937 L304.957987,98.2794937 L304.957987,98.2794937 L304.957987,98.2794937 L304.957987,98.2794937 L304.957987,98.2794937 L304.957987,98.2794937 L304.957987,98.2794937 L304.957987,98.2794937 L304.957987,98.2794937 L304.957987,98.2794937 L304.957987,98.2794937 Z" fill="#4B4643"></path>
            <path d="M63.6325515,46.1931838 L63.6325515,24.4936558 L61.3334349,24.131997 C60.8339989,24.0458873 60.4335951,23.8736706 60.132211,23.6153415 C59.8308274,23.3570125 59.6801378,22.9953574 59.6801378,22.5303651 L59.6801378,19.9212552 L63.6325515,19.9212552 L63.6325515,17.9579646 C63.6325515,16.4424344 63.8607387,15.0819221 64.31712,13.8763867 C64.7735014,12.6708514 65.4279252,11.6461617 66.2804109,10.8022869 C67.1328966,9.95841215 68.1705024,9.31259934 69.3932597,8.86482906 C70.6160169,8.41705879 71.9937512,8.19317697 73.5265031,8.19317697 C74.7492603,8.19317697 75.8858909,8.35678288 76.9364289,8.68399966 L76.8072653,11.8872633 C76.7728211,12.3866994 76.5403287,12.6966895 76.1097802,12.8172431 C75.6792321,12.9377966 75.1798035,12.9980725 74.6114795,12.9980725 C73.8537146,12.9980725 73.1777636,13.0798754 72.5836068,13.2434838 C71.9894501,13.4070922 71.4857162,13.6912498 71.07239,14.0959653 C70.6590633,14.5006807 70.344768,15.0345527 70.1294938,15.6975971 C69.9142195,16.3606415 69.8065842,17.1829765 69.8065842,18.1646268 L69.8065842,19.9212552 L76.703934,19.9212552 L76.703934,24.467823 L70.0132463,24.467823 L70.0132463,46.1931838 L63.6325515,46.1931838 L63.6325515,46.1931838 Z M80.6825663,46.1931838 L80.6825663,19.6887603 L84.4283179,19.6887603 C85.0827516,19.6887603 85.5391259,19.809312 85.7974549,20.0504191 C86.0557838,20.2915262 86.2280005,20.7048464 86.3141103,21.2903921 L86.7016017,24.4936558 C87.6488081,22.8575721 88.7596062,21.5659464 90.0340295,20.6187401 C91.3084524,19.6715337 92.7378515,19.1979376 94.3222694,19.1979376 C95.6311364,19.1979376 96.7161018,19.499317 97.5771988,20.1020846 L96.75055,24.8811474 C96.698884,25.1911421 96.5869435,25.4107185 96.4147239,25.539883 C96.2425047,25.6690475 96.0100119,25.7336288 95.7172392,25.7336288 C95.4589103,25.7336288 95.1058659,25.673353 94.6580955,25.5527994 C94.2103251,25.4322459 93.6161775,25.37197 92.8756344,25.37197 C91.5495454,25.37197 90.4129149,25.7379306 89.4657085,26.4698628 C88.518502,27.201795 87.7176944,28.2738443 87.0632606,29.6860429 L87.0632606,46.1931838 L80.6825663,46.1931838 L80.6825663,46.1931838 Z M113.180578,19.275436 C115.1611,19.275436 116.95646,19.5940369 118.566711,20.2312485 C120.176962,20.86846 121.55039,21.772598 122.687038,22.9436895 C123.823685,24.114781 124.701991,25.5441801 125.321981,27.2319295 C125.94197,28.9196791 126.25196,30.8054525 126.25196,32.8893065 C126.25196,34.9903824 125.94197,36.8847667 125.321981,38.5725162 C124.701991,40.2602657 123.823685,41.6982757 122.687038,42.8865892 C121.55039,44.0749023 120.176962,44.9876514 118.566711,45.6248628 C116.95646,46.2620742 115.1611,46.5806752 113.180578,46.5806752 C111.200055,46.5806752 109.400391,46.2620742 107.781529,45.6248628 C106.162667,44.9876514 104.780627,44.0749023 103.635369,42.8865892 C102.49011,41.6982757 101.603194,40.2602657 100.974593,38.5725162 C100.345993,36.8847667 100.031697,34.9903824 100.031697,32.8893065 C100.031697,30.8054525 100.345993,28.9196791 100.974593,27.2319295 C101.603194,25.5441801 102.49011,24.114781 103.635369,22.9436895 C104.780627,21.772598 106.162667,20.86846 107.781529,20.2312485 C109.400391,19.5940369 111.200055,19.275436 113.180578,19.275436 L113.180578,19.275436 L113.180578,19.275436 Z M113.180578,41.6724487 C115.384986,41.6724487 117.016739,40.9319168 118.075888,39.4508305 C119.135037,37.9697441 119.664604,35.7998131 119.664604,32.940972 C119.664604,30.082131 119.135037,27.9035891 118.075888,26.4052809 C117.016739,24.9069726 115.384986,24.1578298 113.180578,24.1578298 C110.941726,24.1578298 109.288445,24.9112781 108.220686,26.4181972 C107.152926,27.9251165 106.619054,30.099353 106.619054,32.940972 C106.619054,35.7825911 107.152926,37.9482168 108.220686,39.4379141 C109.288445,40.9276113 110.941726,41.6724487 113.180578,41.6724487 L113.180578,41.6724487 L113.180578,41.6724487 Z M131.393067,46.1931838 L131.393067,7.8056854 L137.773762,7.8056854 L137.773762,22.9436895 C138.824299,21.8242638 140.012595,20.9330421 141.338684,20.2699976 C142.664773,19.6069532 144.214724,19.275436 145.988583,19.275436 C147.435225,19.275436 148.756989,19.5725098 149.953913,20.1666665 C151.150838,20.7608233 152.184138,21.6262125 153.053846,22.7628601 C153.923554,23.8995077 154.595199,25.3030743 155.068802,26.9736018 C155.542405,28.6441294 155.779203,30.5643462 155.779203,32.7343099 C155.779203,34.7148323 155.512267,36.5489407 154.978388,38.2366902 C154.444507,39.9244397 153.682448,41.388282 152.692187,42.6282615 C151.701926,43.8682406 150.505019,44.8369597 149.101432,45.5344482 C147.697844,46.2319366 146.126367,46.5806752 144.386951,46.5806752 C143.57752,46.5806752 142.836988,46.4988723 142.165333,46.3352641 C141.493677,46.1716555 140.882308,45.9434683 140.331206,45.6506956 C139.780104,45.3579229 139.267759,45.0005729 138.794156,44.5786357 C138.320553,44.1566982 137.868484,43.6874076 137.437936,43.1707497 L137.153775,44.9532109 C137.050443,45.4009809 136.873921,45.7195819 136.624203,45.9090233 C136.374485,46.0984648 136.034357,46.1931838 135.603809,46.1931838 L131.393067,46.1931838 L131.393067,46.1931838 Z M143.792797,24.2353281 C142.466709,24.2353281 141.334383,24.5151803 140.395788,25.0748931 C139.457192,25.634606 138.583192,26.4224976 137.773762,27.4385917 L137.773762,39.3216666 C138.497083,40.2172072 139.284974,40.8414929 140.13746,41.1945425 C140.989946,41.5475924 141.915611,41.7241143 142.914483,41.7241143 C143.878911,41.7241143 144.748606,41.5432867 145.523593,41.1816261 C146.29858,40.8199655 146.957309,40.2688719 147.4998,39.5283288 C148.042291,38.7877856 148.459917,37.8535097 148.75269,36.7254731 C149.045462,35.5974364 149.191847,34.267062 149.191847,32.7343099 C149.191847,31.1843358 149.066989,29.8711831 148.817271,28.7948122 C148.567553,27.7184414 148.210203,26.8444413 147.745211,26.1727859 C147.280219,25.5011305 146.716209,25.0103127 146.053165,24.700318 C145.39012,24.3903231 144.636672,24.2353281 143.792797,24.2353281 L143.792797,24.2353281 L143.792797,24.2353281 Z M189.517574,25.2944717 C189.328132,25.5355788 189.142999,25.7250172 188.962169,25.8627927 C188.781339,26.0005681 188.518708,26.0694548 188.174269,26.0694548 C187.847053,26.0694548 187.528452,25.9704302 187.218457,25.772378 C186.908462,25.5743257 186.538196,25.350444 186.107648,25.1007259 C185.677099,24.8510079 185.164754,24.6271261 184.570598,24.4290738 C183.976441,24.2310216 183.240214,24.131997 182.361896,24.131997 C181.24247,24.131997 180.260834,24.3343517 179.41696,24.7390671 C178.573085,25.1437826 177.871302,25.7250141 177.311589,26.4827792 C176.751876,27.2405443 176.334251,28.1575985 176.058699,29.2339693 C175.783148,30.3103402 175.645375,31.5287737 175.645375,32.8893065 C175.645375,34.3015051 175.796065,35.5586874 176.097449,36.6608911 C176.398832,37.7630949 176.83368,38.6887599 177.402003,39.4379141 C177.970327,40.1870682 178.659195,40.7553835 179.468625,41.142877 C180.278056,41.5303705 181.190805,41.7241143 182.206899,41.7241143 C183.222993,41.7241143 184.045328,41.5992571 184.673929,41.3495391 C185.302529,41.0998211 185.832096,40.8242743 186.262644,40.5228905 C186.693193,40.2215066 187.067764,39.9459598 187.38637,39.6962418 C187.704976,39.4465237 188.062325,39.3216666 188.45843,39.3216666 C188.975088,39.3216666 189.362575,39.5197159 189.620904,39.9158204 L191.455031,42.2407697 C190.748932,43.0674226 189.982567,43.760595 189.155915,44.320308 C188.329262,44.8800206 187.472484,45.3277844 186.585554,45.6636118 C185.698624,45.9994396 184.78157,46.2362377 183.834363,46.3740131 C182.887157,46.5117885 181.948576,46.5806752 181.018591,46.5806752 C179.382508,46.5806752 177.841168,46.2749904 176.394525,45.6636118 C174.947883,45.0522332 173.686395,44.1610117 172.610024,42.98992 C171.533653,41.8188288 170.681181,40.3851242 170.05258,38.6887637 C169.42398,36.9924032 169.109684,35.0592702 169.109684,32.8893065 C169.109684,30.943228 169.389536,29.1392575 169.949249,27.4773409 C170.508962,25.8154243 171.331297,24.3774144 172.416279,23.1632681 C173.50126,21.9491217 174.844551,20.9976242 176.446191,20.3087468 C178.047831,19.6198695 179.89055,19.275436 181.974404,19.275436 C183.954927,19.275436 185.69001,19.5940369 187.179708,20.2312485 C188.669405,20.86846 190.00839,21.7812088 191.196703,22.9695222 L189.517574,25.2944717 L189.517574,25.2944717 Z M206.929246,19.275436 C208.909769,19.275436 210.705129,19.5940369 212.315379,20.2312485 C213.92563,20.86846 215.299059,21.772598 216.435707,22.9436895 C217.572354,24.114781 218.45066,25.5441801 219.070649,27.2319295 C219.690639,28.9196791 220.000629,30.8054525 220.000629,32.8893065 C220.000629,34.9903824 219.690639,36.8847667 219.070649,38.5725162 C218.45066,40.2602657 217.572354,41.6982757 216.435707,42.8865892 C215.299059,44.0749023 213.92563,44.9876514 212.315379,45.6248628 C210.705129,46.2620742 208.909769,46.5806752 206.929246,46.5806752 C204.948724,46.5806752 203.149059,46.2620742 201.530197,45.6248628 C199.911336,44.9876514 198.529296,44.0749023 197.384038,42.8865892 C196.238779,41.6982757 195.351863,40.2602657 194.723262,38.5725162 C194.094662,36.8847667 193.780366,34.9903824 193.780366,32.8893065 C193.780366,30.8054525 194.094662,28.9196791 194.723262,27.2319295 C195.351863,25.5441801 196.238779,24.114781 197.384038,22.9436895 C198.529296,21.772598 199.911336,20.86846 201.530197,20.2312485 C203.149059,19.5940369 204.948724,19.275436 206.929246,19.275436 L206.929246,19.275436 L206.929246,19.275436 Z M206.929246,41.6724487 C209.133654,41.6724487 210.765408,40.9319168 211.824557,39.4508305 C212.883706,37.9697441 213.413272,35.7998131 213.413272,32.940972 C213.413272,30.082131 212.883706,27.9035891 211.824557,26.4052809 C210.765408,24.9069726 209.133654,24.1578298 206.929246,24.1578298 C204.690395,24.1578298 203.037114,24.9112781 201.969355,26.4181972 C200.901595,27.9251165 200.367723,30.099353 200.367723,32.940972 C200.367723,35.7825911 200.901595,37.9482168 201.969355,39.4379141 C203.037114,40.9276113 204.690395,41.6724487 206.929246,41.6724487 L206.929246,41.6724487 L206.929246,41.6724487 Z M225.064238,46.1931838 L225.064238,19.6887603 L228.809989,19.6887603 C229.464423,19.6887603 229.920797,19.809312 230.179126,20.0504191 C230.437455,20.2915262 230.609672,20.7048464 230.695782,21.2903921 L231.083273,24.4936558 C232.030479,22.8575721 233.141278,21.5659464 234.415701,20.6187401 C235.690124,19.6715337 237.119523,19.1979376 238.703941,19.1979376 C240.012808,19.1979376 241.097773,19.499317 241.95887,20.1020846 L241.132221,24.8811474 C241.080555,25.1911421 240.968614,25.4107185 240.796395,25.539883 C240.624176,25.6690475 240.391683,25.7336288 240.098911,25.7336288 C239.840582,25.7336288 239.487537,25.673353 239.039767,25.5527994 C238.591996,25.4322459 237.997849,25.37197 237.257306,25.37197 C235.931217,25.37197 234.794586,25.7379306 233.84738,26.4698628 C232.900173,27.201795 232.099365,28.2738443 231.444932,29.6860429 L231.444932,46.1931838 L225.064238,46.1931838 L225.064238,46.1931838 Z M257.20059,19.275436 C258.871118,19.275436 260.408153,19.5423719 261.81174,20.0762519 C263.215328,20.6101318 264.425151,21.3894126 265.441244,22.4141177 C266.457338,23.4388227 267.249536,24.696005 267.81786,26.1857023 C268.386183,27.6753996 268.670341,29.37604 268.670341,31.2876747 C268.670341,31.7698888 268.648814,32.1702928 268.605759,32.4888986 C268.562704,32.8075043 268.485207,33.0572186 268.373264,33.2380489 C268.261321,33.4188792 268.110632,33.5480418 267.921191,33.6255405 C267.731749,33.7030392 267.490646,33.7417879 267.197873,33.7417879 L250.819896,33.7417879 C251.009337,36.4628535 251.741258,38.4605678 253.015681,39.734991 C254.290104,41.009414 255.977829,41.6466159 258.078904,41.6466159 C259.112221,41.6466159 260.003442,41.5260644 260.752597,41.2849573 C261.501751,41.0438502 262.156174,40.7769142 262.715887,40.4841413 C263.2756,40.1913685 263.766418,39.9244325 264.188355,39.6833254 C264.610293,39.4422183 265.019307,39.3216666 265.415412,39.3216666 C265.673741,39.3216666 265.897623,39.3733316 266.087064,39.4766632 C266.276505,39.5799948 266.440111,39.7263791 266.577887,39.9158204 L268.437846,42.2407697 C267.731747,43.0674226 266.93955,43.760595 266.061231,44.320308 C265.182912,44.8800206 264.265858,45.3277844 263.310041,45.6636118 C262.354224,45.9994396 261.381199,46.2362377 260.390938,46.3740131 C259.400677,46.5117885 258.440568,46.5806752 257.510584,46.5806752 C255.667837,46.5806752 253.95428,46.2749904 252.369862,45.6636118 C250.785444,45.0522332 249.40771,44.1480955 248.236619,42.951171 C247.065527,41.7542466 246.144168,40.2731825 245.472512,38.5079343 C244.800857,36.7426861 244.465034,34.6976121 244.465034,32.3726511 C244.465034,30.564348 244.757803,28.8637076 245.343348,27.2706787 C245.928894,25.6776498 246.768451,24.291305 247.862043,23.1116025 C248.955636,21.9319 250.290316,20.9976242 251.866123,20.3087468 C253.44193,19.6198695 255.220068,19.275436 257.20059,19.275436 L257.20059,19.275436 L257.20059,19.275436 Z M257.329754,23.8478365 C255.469785,23.8478365 254.014554,24.3730976 252.964016,25.4236356 C251.913478,26.4741735 251.241832,27.9638484 250.94906,29.892705 L262.935466,29.892705 C262.935466,29.0660522 262.823525,28.2867714 262.59964,27.5548392 C262.375754,26.822907 262.031321,26.1813996 261.566329,25.6302977 C261.101337,25.0791958 260.5158,24.6443485 259.8097,24.3257428 C259.103601,24.007137 258.276961,23.8478365 257.329754,23.8478365 L257.329754,23.8478365 L257.329754,23.8478365 Z" fill="#FFFFFF"></path>
        </g>
    </g>
</svg>