<?xml version="1.0" encoding="UTF-8" standalone="no"?>
<svg width="300px" height="44px" viewBox="0 0 300 44" version="1.1" xmlns="http://www.w3.org/2000/svg" xmlns:xlink="http://www.w3.org/1999/xlink">
    <defs></defs>
    <g stroke="none" stroke-width="1" fill="none" fill-rule="evenodd">
        <g fill="#FFFFFF">
            <path d="M260.439683,33.1775972 L258.073737,38.091654 C257.097734,38.3525524 256.378936,39.2429276 256.378936,40.3011874 C256.378936,41.564226 257.402831,42.5881207 258.66587,42.5881207 C259.928908,42.5881207 260.952803,41.564226 260.952803,40.3011874 C260.952803,39.9739672 260.88408,39.6627986 260.76028,39.3813266 L263.124914,34.4699955 L265.529289,35.6272181 L266.440396,33.7337106 L263.024982,31.2436623 L258.947844,30.1279856 L258.037028,32.0212022 L260.439683,33.1775972 L260.439683,33.1775972 L260.439683,33.1775972 Z"></path>
            <path d="M265.343052,31.9944306 L263.308702,30.6546874 L260.895477,29.8986812 L271.538054,6.71361667 L277.9676,0.19531803 L276.884805,9.28688966 L265.343052,31.9944306 L265.343052,31.9944306 Z"></path>
            <path d="M252.484253,10.1691879 L239.564053,20.2204627 L252.483962,30.1777459 L252.483962,35.9260705 L236.41781,22.7963546 L236.41781,17.5820067 L252.484253,4.45229085 L252.484253,10.1691879 L252.484253,10.1691879 L252.484253,10.1691879 Z" opacity="0.405317164"></path>
            <path d="M283.804096,4.45229085 L299.870829,17.5820067 L299.870829,22.7960636 L283.804096,35.9257795 L283.804096,30.1774549 L296.724295,20.2201717 L283.804096,10.168606 L283.804096,4.45229085 L283.804096,4.45229085 L283.804096,4.45229085 Z" opacity="0.405317164"></path>
            <path d="M0.044961684,42.6744555 L0.044961684,13.1564269 L4.38923295,13.1564269 C5.30987782,13.1564269 5.91404197,13.5879727 6.20174347,14.4510772 L6.66206362,16.6375979 C7.17992636,16.0621948 7.7217561,15.53475 8.28756911,15.0552474 C8.85338209,14.5757449 9.45754624,14.1633789 10.1000796,13.8181371 C10.742613,13.4728953 11.4330863,13.1995829 12.1715202,12.9981918 C12.9099541,12.7968008 13.7203013,12.6961068 14.6025859,12.6961068 C16.4630558,12.6961068 17.9926459,13.1995768 19.1914023,14.2065322 C20.3901586,15.2134875 21.2868149,16.5512795 21.8813981,18.2199484 C22.3417205,17.2417632 22.9171149,16.4026463 23.6075986,15.7025726 C24.2980822,15.0024989 25.0556849,14.4318994 25.8804292,13.9907571 C26.7051736,13.5496148 27.5826501,13.2235579 28.512885,13.0125768 C29.4431199,12.8015957 30.3781359,12.6961068 31.3179608,12.6961068 C32.9482695,12.6961068 34.3963454,12.9454443 35.6622321,13.444127 C36.9281188,13.9428096 37.9925985,14.6716425 38.855703,15.6306476 C39.7188075,16.5896527 40.3757164,17.7596213 40.8264487,19.1405886 C41.2771811,20.5215559 41.5025437,22.1038906 41.5025437,23.88764 L41.5025437,42.6744555 L34.3963517,42.6744555 L34.3963517,23.88764 C34.3963517,22.0079901 33.9839857,20.5934788 33.1592414,19.6440638 C32.334497,18.6946488 31.1261688,18.2199484 29.5342203,18.2199484 C28.8053764,18.2199484 28.129288,18.3446172 27.5059347,18.5939585 C26.8825814,18.8432998 26.3359567,19.2029213 25.8660442,19.6728338 C25.3961317,20.1427463 25.0269203,20.7325255 24.7583989,21.4421893 C24.4898775,22.1518531 24.3556188,22.9669951 24.3556188,23.88764 L24.3556188,42.6744555 L17.2206567,42.6744555 L17.2206567,23.88764 C17.2206567,21.9120896 16.8226756,20.4736035 16.0267014,19.5721387 C15.2307271,18.670674 14.0559636,18.2199484 12.5023753,18.2199484 C11.48583,18.2199484 10.5316342,18.4740809 9.63975949,18.9823536 C8.74788476,19.4906263 7.91835784,20.1858945 7.15115377,21.0681792 L7.15115377,42.6744555 L0.044961684,42.6744555 L0.044961684,42.6744555 Z M71.6563916,42.6744555 L68.4629209,42.6744555 C67.7916172,42.6744555 67.2641722,42.5737616 66.8805705,42.3723705 C66.4969684,42.1709794 66.209271,41.7634084 66.0174701,41.1496451 L65.3845301,39.0494344 C64.636506,39.720738 63.9028781,40.3105174 63.1836244,40.8187901 C62.4643706,41.3270625 61.7211529,41.7538136 60.9539486,42.0990555 C60.1867447,42.4442974 59.3716024,42.7032247 58.5084979,42.8758455 C57.6453934,43.0484666 56.6864025,43.1347755 55.6314971,43.1347755 C54.3847905,43.1347755 53.2340017,42.9669521 52.179096,42.6313005 C51.1241906,42.2956489 50.2179442,41.7921787 49.4603302,41.1208751 C48.7027162,40.4495715 48.1129369,39.6152497 47.6909749,38.6178844 C47.2690125,37.620519 47.0580345,36.4601403 47.0580345,35.1367133 C47.0580345,34.0242674 47.3505266,32.9262231 47.9355199,31.8425473 C48.5205131,30.7588716 49.4938886,29.7807011 50.8556756,28.9080065 C52.217463,28.0353119 54.0299554,27.3112739 56.2932071,26.7358708 C58.5564592,26.1604678 61.366302,25.834411 64.7228197,25.7576906 L64.7228197,24.0314901 C64.7228197,22.0559396 64.3056589,20.5934788 63.4713244,19.6440638 C62.6369899,18.6946488 61.4238667,18.2199484 59.8319182,18.2199484 C58.6811122,18.2199484 57.7221214,18.3542071 56.9549175,18.6227285 C56.1877132,18.8912499 55.5212149,19.193332 54.9554017,19.5289837 C54.389589,19.8646355 53.8669391,20.1667176 53.3874364,20.435239 C52.907934,20.7037604 52.380489,20.8380191 51.805086,20.8380191 C51.3255836,20.8380191 50.9132175,20.7133503 50.5679756,20.464009 C50.2227337,20.2146677 49.9446266,19.9077907 49.7336452,19.5433687 L48.4389949,17.2705381 C51.8338729,14.1633616 55.9287634,12.6097967 60.7237886,12.6097967 C62.4499976,12.6097967 63.9891776,12.892699 65.3413751,13.458512 C66.6935722,14.024325 67.8395659,14.8106973 68.7793909,15.8176527 C69.7192159,16.824608 70.433664,18.0281413 70.9227566,19.4282887 C71.4118492,20.8284361 71.6563916,22.3628212 71.6563916,24.0314901 L71.6563916,42.6744555 L71.6563916,42.6744555 Z M57.8467879,38.2438744 C58.5756315,38.2438744 59.246925,38.1767449 59.8606882,38.042484 C60.4744515,37.9082235 61.054641,37.7068354 61.601274,37.438314 C62.1479066,37.1697926 62.6753516,36.8389408 63.1836244,36.4457487 C63.6918971,36.0525566 64.2049571,35.5874461 64.7228197,35.0504033 L64.7228197,30.0731918 C62.6513689,30.1690923 60.9203906,30.3465056 59.5298332,30.605437 C58.1392759,30.8643684 57.0220519,31.1952202 56.1781271,31.5980023 C55.3342027,32.0007844 54.7348335,32.4706899 54.3800017,33.0077327 C54.02517,33.5447755 53.8477567,34.1297599 53.8477567,34.7627032 C53.8477567,36.0094098 54.2169679,36.9012712 54.9554017,37.438314 C55.693836,37.9753567 56.6576216,38.2438744 57.8467879,38.2438744 L57.8467879,38.2438744 L57.8467879,38.2438744 Z M85.670265,27.4551211 L75.9747724,13.1564269 L82.8220342,13.1564269 C83.3398969,13.1564269 83.7234934,13.2283512 83.9728346,13.3722019 C84.2221759,13.5160527 84.4427437,13.7510054 84.6345446,14.0770672 L90.8200965,23.9451801 C90.9159971,23.6191183 91.0358707,23.2930615 91.1797215,22.9669998 C91.3235722,22.640938 91.5009859,22.3148812 91.7119669,21.9888195 L96.6891784,14.2209172 C96.9193395,13.8564953 97.1590871,13.5879779 97.4084284,13.4153569 C97.6577696,13.242736 97.9646467,13.1564269 98.3290687,13.1564269 L104.859861,13.1564269 L95.135598,27.138651 L105.262641,42.6744555 L98.4153787,42.6744555 C97.8975161,42.6744555 97.4803552,42.5401969 97.1638834,42.2716755 C96.8474119,42.0031541 96.5836894,41.696277 96.372708,41.3510351 L90.1008465,31.0801421 C89.9282254,31.7706258 89.6884777,32.3460202 89.3815961,32.8063426 L83.8577546,41.3510351 C83.6467732,41.6770969 83.3878459,41.9791789 83.0809642,42.2572905 C82.7740826,42.5354017 82.3904865,42.6744555 81.9301639,42.6744555 L75.571992,42.6744555 L85.670265,27.4551211 L85.670265,27.4551211 Z M117.348924,13.1564269 L117.348924,42.6744555 L110.242731,42.6744555 L110.242731,13.1564269 L117.348924,13.1564269 L117.348924,13.1564269 Z M118.413414,4.55419436 C118.413414,5.16795761 118.288745,5.74335202 118.039404,6.28039489 C117.790062,6.81743771 117.45921,7.28734316 117.046838,7.6901253 C116.634466,8.09290744 116.150176,8.4141693 115.593953,8.65392056 C115.03773,8.89367182 114.443156,9.01354567 113.810212,9.01354567 C113.196449,9.01354567 112.61626,8.89367182 112.069627,8.65392056 C111.522994,8.4141693 111.048294,8.09290744 110.645511,7.6901253 C110.242729,7.28734316 109.921467,6.81743771 109.681716,6.28039489 C109.441965,5.74335202 109.322091,5.16795761 109.322091,4.55419436 C109.322091,3.92125102 109.441965,3.32667679 109.681716,2.77045385 C109.921467,2.2142309 110.242729,1.73473556 110.645511,1.33195342 C111.048294,0.929171295 111.522994,0.607909414 112.069627,0.368158144 C112.61626,0.128406876 113.196449,0.0085330392 113.810212,0.0085330392 C114.443156,0.0085330392 115.03773,0.128406876 115.593953,0.368158144 C116.150176,0.607909414 116.634466,0.929171295 117.046838,1.33195342 C117.45921,1.73473556 117.790062,2.2142309 118.039404,2.77045385 C118.288745,3.32667679 118.413414,3.92125102 118.413414,4.55419436 L118.413414,4.55419436 L118.413414,4.55419436 Z M125.407405,42.6744555 L125.407405,13.1564269 L129.751676,13.1564269 C130.672321,13.1564269 131.276485,13.5879727 131.564187,14.4510772 L132.024507,16.6375979 C132.54237,16.0621948 133.084199,15.53475 133.650012,15.0552474 C134.215825,14.5757449 134.819989,14.1633789 135.462523,13.8181371 C136.105056,13.4728953 136.79553,13.1995829 137.533963,12.9981918 C138.272397,12.7968008 139.082745,12.6961068 139.965029,12.6961068 C141.825499,12.6961068 143.355089,13.1995768 144.553846,14.2065322 C145.752602,15.2134875 146.649258,16.5512795 147.243841,18.2199484 C147.704164,17.2417632 148.279558,16.4026463 148.970042,15.7025726 C149.660526,15.0024989 150.418128,14.4318994 151.242873,13.9907571 C152.067617,13.5496148 152.945093,13.2235579 153.875328,13.0125768 C154.805563,12.8015957 155.740579,12.6961068 156.680404,12.6961068 C158.310713,12.6961068 159.758789,12.9454443 161.024675,13.444127 C162.290562,13.9428096 163.355042,14.6716425 164.218146,15.6306476 C165.081251,16.5896527 165.738159,17.7596213 166.188892,19.1405886 C166.639624,20.5215559 166.864987,22.1038906 166.864987,23.88764 L166.864987,42.6744555 L159.758795,42.6744555 L159.758795,23.88764 C159.758795,22.0079901 159.346429,20.5934788 158.521684,19.6440638 C157.69694,18.6946488 156.488612,18.2199484 154.896664,18.2199484 C154.16782,18.2199484 153.491731,18.3446172 152.868378,18.5939585 C152.245025,18.8432998 151.6984,19.2029213 151.228488,19.6728338 C150.758575,20.1427463 150.389364,20.7325255 150.120842,21.4421893 C149.852321,22.1518531 149.718062,22.9669951 149.718062,23.88764 L149.718062,42.6744555 L142.5831,42.6744555 L142.5831,23.88764 C142.5831,21.9120896 142.185119,20.4736035 141.389145,19.5721387 C140.59317,18.670674 139.418407,18.2199484 137.864818,18.2199484 C136.848273,18.2199484 135.894078,18.4740809 135.002203,18.9823536 C134.110328,19.4906263 133.280801,20.1858945 132.513597,21.0681792 L132.513597,42.6744555 L125.407405,42.6744555 L125.407405,42.6744555 Z M180.38977,13.1564269 L180.38977,31.9144724 C180.38977,33.7174019 180.806931,35.1127334 181.641265,36.1005086 C182.4756,37.0882838 183.727083,37.582164 185.395752,37.582164 C186.623278,37.582164 187.774067,37.3088517 188.848153,36.7622188 C189.922238,36.2155859 190.938768,35.4627782 191.897773,34.5037731 L191.897773,13.1564269 L199.003966,13.1564269 L199.003966,42.6744555 L194.659694,42.6744555 C193.739049,42.6744555 193.134885,42.2429096 192.847184,41.3798051 L192.358094,39.0206644 C191.744331,39.6344276 191.111397,40.1954374 190.459273,40.7037101 C189.80715,41.2119825 189.111882,41.6435284 188.373447,41.9983605 C187.635013,42.3531922 186.839051,42.6312994 185.985537,42.8326905 C185.132022,43.0340816 184.216186,43.1347755 183.238001,43.1347755 C181.626873,43.1347755 180.202771,42.8614635 178.965655,42.3148305 C177.728538,41.7681975 176.688033,40.9962101 175.844109,39.9988447 C175.000184,39.0014794 174.362455,37.8171259 173.930903,36.4457487 C173.499351,35.0743715 173.283578,33.5639611 173.283578,31.9144724 L173.283578,13.1564269 L180.38977,13.1564269 L180.38977,13.1564269 Z M224.151832,18.9104286 C223.960031,19.2173102 223.758643,19.4330831 223.547662,19.5577537 C223.336681,19.6824244 223.068163,19.7447588 222.742102,19.7447588 C222.39686,19.7447588 222.027648,19.6488597 221.634456,19.4570587 C221.241264,19.2652577 220.785744,19.0494848 220.267881,18.8097336 C219.750018,18.5699823 219.160239,18.3542094 218.498526,18.1624083 C217.836812,17.9706073 217.055235,17.8747083 216.15377,17.8747083 C214.753622,17.8747083 213.650783,18.1719954 212.845219,18.7665785 C212.039655,19.3611617 211.636878,20.1379441 211.636878,21.0969492 C211.636878,21.7298926 211.843062,22.2621324 212.255434,22.6936847 C212.667806,23.125237 213.214431,23.5040383 213.895324,23.8301 C214.576218,24.1561617 215.348205,24.4486539 216.21131,24.7075853 C217.074414,24.9665166 217.956686,25.2494189 218.858151,25.5563005 C219.759615,25.8631821 220.641887,26.2132137 221.504991,26.6064058 C222.368096,26.9995979 223.140084,27.4982731 223.820977,28.1024463 C224.501871,28.7066194 225.048495,29.4306574 225.460867,30.2745819 C225.87324,31.1185063 226.079423,32.1350365 226.079423,33.3242028 C226.079423,34.7435303 225.820495,36.0525526 225.302632,37.251309 C224.78477,38.4500651 224.027167,39.4857754 223.029802,40.3584697 C222.032436,41.2311645 220.800133,41.9120479 219.332856,42.4011405 C217.865578,42.8902331 216.182549,43.1347755 214.283719,43.1347755 C213.267174,43.1347755 212.274618,43.0436715 211.306023,42.8614605 C210.337428,42.6792495 209.407207,42.4251172 208.515333,42.0990555 C207.623458,41.7729937 206.798726,41.3893972 206.041112,40.9482551 C205.283498,40.5071126 204.616999,40.0276174 204.041596,39.5097547 L205.681487,36.8053738 C205.892468,36.4793121 206.141805,36.2299745 206.429507,36.0573536 C206.717208,35.8847327 207.081625,35.7984235 207.522767,35.7984235 C207.96391,35.7984235 208.381071,35.9230923 208.774263,36.1724336 C209.167455,36.4217749 209.622975,36.6902923 210.140838,36.9779938 C210.658701,37.2656954 211.26766,37.5342128 211.967734,37.783554 C212.667807,38.0328952 213.554874,38.1575644 214.628959,38.1575644 C215.472884,38.1575644 216.196922,38.0568701 216.801095,37.855479 C217.405268,37.6540879 217.903943,37.3903656 218.297136,37.0643039 C218.690328,36.7382422 218.978025,36.3594408 219.160236,35.9278885 C219.342447,35.4963363 219.433551,35.0504056 219.433551,34.5900832 C219.433551,33.8995995 219.227368,33.333795 218.814996,32.8926526 C218.402623,32.4515103 217.855999,32.0679141 217.175105,31.7418523 C216.494211,31.4157906 215.717429,31.1232984 214.844734,30.8643671 C213.97204,30.6054357 213.080178,30.3225334 212.169124,30.0156518 C211.258069,29.7087702 210.366207,29.3491487 209.493513,28.9367765 C208.620818,28.5244043 207.844036,28.0017544 207.163142,27.368811 C206.482249,26.7358677 205.935624,25.9590852 205.523252,25.0384404 C205.110879,24.1177955 204.904696,23.0053663 204.904696,21.7011194 C204.904696,20.492773 205.144444,19.3419841 205.623947,18.2487184 C206.103449,17.1554526 206.808307,16.2012568 207.738542,15.3861025 C208.668777,14.5709482 209.829156,13.9188346 211.219713,13.429742 C212.610271,12.9406494 214.21658,12.6961068 216.03869,12.6961068 C218.07178,12.6961068 219.922633,13.0317535 221.591301,13.7030571 C223.25997,14.3743606 224.650507,15.256632 225.762952,16.3498978 L224.151832,18.9104286 L224.151832,18.9104286 Z"></path>
        </g>
    </g>
</svg>